<?xml version="1.0" standalone="no"?>
<!DOCTYPE svg PUBLIC "-//W3C//DTD SVG 20010904//EN"
 "http://www.w3.org/TR/2001/REC-SVG-20010904/DTD/svg10.dtd">
<svg version="1.0" xmlns="http://www.w3.org/2000/svg"
 width="700.000000pt" height="700.000000pt" viewBox="0 0 700.000000 700.000000"
 preserveAspectRatio="xMidYMid meet">
<metadata>
Created by potrace 1.14, written by Peter Selinger 2001-2017
</metadata>
<g transform="translate(0.000000,700.000000) scale(0.100000,-0.100000)"
fill="#000000" stroke="none">
<path d="M3323 5864 c-252 -42 -505 -168 -699 -348 l-79 -73 -130 -6 c-71 -4
-141 -9 -155 -11 -14 -3 -46 -7 -72 -11 -141 -17 -347 -92 -450 -163 -182
-125 -308 -339 -364 -617 -2 -11 -7 -33 -10 -50 -4 -16 -8 -39 -10 -50 -10
-77 -16 -123 -19 -145 -5 -28 -15 -169 -20 -275 -2 -38 -4 -380 -5 -760 -1
-390 -6 -716 -11 -750 -21 -125 -94 -233 -187 -272 -138 -59 -304 -46 -406 32
-78 59 -161 197 -222 370 l-26 74 -99 -52 c-219 -116 -348 -187 -353 -195 -2
-4 16 -66 40 -137 25 -72 49 -141 54 -155 4 -14 25 -59 45 -100 139 -283 348
-452 642 -521 132 -31 345 -42 485 -25 387 47 653 271 783 660 69 205 98 402
105 698 0 15 54 16 693 17 792 1 801 1 987 36 621 119 1055 566 1156 1192 16
99 21 313 10 393 -53 371 -184 646 -416 868 -198 191 -455 316 -760 368 -119
21 -404 25 -507 8z m-848 -1701 c88 -46 138 -127 139 -223 1 -142 -96 -238
-251 -248 -166 -11 -271 90 -266 253 4 97 61 182 148 221 66 29 171 28 230 -3z"/>
<path d="M4980 5506 c0 -2 34 -54 75 -115 153 -227 240 -456 275 -726 5 -38 7
-153 5 -255 -4 -209 -26 -338 -90 -524 -42 -124 -148 -351 -176 -376 -3 -3
-16 -23 -29 -44 -99 -163 -309 -371 -497 -493 -174 -112 -433 -216 -620 -249
-13 -2 -35 -6 -50 -9 -16 -3 -57 -8 -93 -11 -36 -3 -71 -7 -79 -10 -16 -5
-321 -5 -421 0 -107 6 -312 18 -365 21 -27 2 -95 6 -150 9 -55 4 -129 9 -165
11 -36 3 -91 7 -123 10 l-57 4 2 -772 3 -772 60 -1 c33 -1 208 -3 390 -5 l329
-4 8 36 c12 58 17 86 43 244 14 83 34 197 45 255 19 107 55 311 65 365 24 140
37 210 38 212 3 2 380 10 827 18 173 3 403 8 510 10 209 5 839 16 1033 19
l117 2 1 -51 c1 -27 3 -72 4 -100 2 -27 6 -102 9 -165 8 -147 16 -287 21 -370
2 -36 7 -126 11 -200 3 -74 8 -155 9 -180 2 -25 4 -71 6 -103 l2 -57 146 -1
c80 0 287 -2 459 -4 l312 -4 1 37 c1 20 2 53 4 72 1 19 5 100 9 180 4 80 9
170 11 200 2 30 7 118 11 195 3 77 8 163 9 190 2 28 6 113 9 190 3 77 8 169
11 205 3 36 7 130 10 210 3 80 7 172 10 205 2 33 7 128 10 210 4 83 8 186 10
230 20 411 26 871 12 1010 -56 593 -343 971 -848 1116 -154 44 -230 55 -499
74 -113 8 -212 16 -240 20 -14 2 -59 6 -100 10 -41 4 -88 9 -105 11 -16 2 -68
6 -115 10 -47 4 -88 8 -92 11 -5 2 -8 2 -8 -1z"/>
<path d="M3849 2062 l-186 -2 -27 -123 c-53 -231 -57 -252 -62 -277 -3 -14
-16 -74 -30 -135 -14 -60 -28 -121 -30 -135 -3 -14 -12 -54 -20 -90 -31 -129
-34 -120 33 -120 32 -1 149 -3 261 -6 134 -3 202 -1 203 6 1 5 2 13 3 18 3 10
14 89 21 142 4 25 8 58 11 75 3 16 21 138 40 269 19 132 37 249 39 260 3 12 7
42 9 68 l5 46 -42 4 c-24 1 -126 2 -228 0z"/>
<path d="M5167 2062 l-68 -3 5 -27 c3 -15 8 -74 11 -132 4 -58 8 -121 10 -140
2 -19 6 -81 9 -138 4 -57 8 -122 11 -145 2 -23 7 -87 10 -142 3 -56 8 -110 10
-120 2 -11 4 -30 4 -42 1 -21 5 -21 129 -23 70 -1 187 -3 260 -4 l133 -3 -6
86 c-3 47 -7 109 -9 136 -4 44 -10 122 -21 285 -9 129 -18 258 -21 285 -1 17
-3 51 -3 77 l-1 47 -197 3 c-109 2 -229 2 -266 0z"/>
</g>
</svg>
