<svg width="474" height="185" viewBox="0 0 474 185" fill="none" xmlns="http://www.w3.org/2000/svg">
<path fill-rule="evenodd" clip-rule="evenodd" d="M154.327 104.845C175.969 104.845 180.047 85.9472 180.047 70.8167C182.617 70.8167 202.931 70.8167 212.196 70.8167C262.595 70.8167 262.608 0 213.804 0C200.529 0 191.979 7.99229 189.69 10.7765C162.459 10.7765 159.15 24.907 159.15 52.3443C159.15 57.6375 159.15 74.844 159.15 77.4944C159.15 83.9457 156.539 88.1311 149.503 88.1311C143.496 88.1311 140.651 82.8485 138.251 75.4352C137 76.1023 128.218 80.8196 127 81.5932C129.657 88.9988 132.502 104.845 154.327 104.845ZM184.924 41.5663C193.169 41.5663 193.869 53.8823 184.34 53.8823C176.308 53.8823 176.517 41.5663 184.924 41.5663ZM213.805 78.4731C206.837 78.4731 186.477 76.9747 186.477 76.9747V114.944L205.766 115.217L210.589 87.7511L271.673 86.6113L273.282 116.725L295.787 117C295.787 117 299 58.0175 299 46.1848C299 24.2368 289.112 11.8144 266.85 10.7765C261.273 10.5166 253.975 9.48315 249.168 9.23696C270.118 34.5543 253.449 78.4731 213.805 78.4731ZM252.385 93.8681L253.991 116.178L266.85 116.453L265.243 93.8681H252.385ZM212.196 115.494L225.056 115.767L228.269 93.8681H217.017L212.196 115.494Z" fill="#FF862F"/>
<path d="M12.9219 156.203C10.4115 156.203 8.42708 157.042 6.96875 158.719C5.52083 160.385 4.79688 162.672 4.79688 165.578C4.79688 168.568 5.49479 170.88 6.89062 172.516C8.29688 174.141 10.2969 174.953 12.8906 174.953C14.4844 174.953 16.3021 174.667 18.3438 174.094V176.422C16.7604 177.016 14.8073 177.312 12.4844 177.312C9.11979 177.312 6.52083 176.292 4.6875 174.25C2.86458 172.208 1.95312 169.307 1.95312 165.547C1.95312 163.193 2.39062 161.13 3.26562 159.359C4.15104 157.589 5.42188 156.224 7.07812 155.266C8.74479 154.307 10.7031 153.828 12.9531 153.828C15.349 153.828 17.4427 154.266 19.2344 155.141L18.1094 157.422C16.3802 156.609 14.651 156.203 12.9219 156.203ZM25.5312 177H22.9375V159.875H37.3125V177H34.6875V162.125H25.5312V177ZM53.3438 177L52.8281 174.562H52.7031C51.849 175.635 50.9948 176.365 50.1406 176.75C49.2969 177.125 48.2396 177.312 46.9688 177.312C45.2708 177.312 43.9375 176.875 42.9688 176C42.0104 175.125 41.5312 173.88 41.5312 172.266C41.5312 168.807 44.2969 166.995 49.8281 166.828L52.7344 166.734V165.672C52.7344 164.328 52.4427 163.339 51.8594 162.703C51.2865 162.057 50.3646 161.734 49.0938 161.734C47.6667 161.734 46.0521 162.172 44.25 163.047L43.4531 161.062C44.2969 160.604 45.2188 160.245 46.2188 159.984C47.2292 159.724 48.2396 159.594 49.25 159.594C51.2917 159.594 52.8021 160.047 53.7812 160.953C54.7708 161.859 55.2656 163.312 55.2656 165.312V177H53.3438ZM47.4844 175.172C49.099 175.172 50.3646 174.729 51.2812 173.844C52.2083 172.958 52.6719 171.719 52.6719 170.125V168.578L50.0781 168.688C48.0156 168.76 46.526 169.083 45.6094 169.656C44.7031 170.219 44.25 171.099 44.25 172.297C44.25 173.234 44.5312 173.948 45.0938 174.438C45.6667 174.927 46.4635 175.172 47.4844 175.172ZM67.4688 177.312C64.9896 177.312 63.0677 176.552 61.7031 175.031C60.349 173.5 59.6719 171.339 59.6719 168.547C59.6719 165.682 60.3594 163.469 61.7344 161.906C63.1198 160.344 65.0885 159.562 67.6406 159.562C68.4635 159.562 69.2865 159.651 70.1094 159.828C70.9323 160.005 71.5781 160.214 72.0469 160.453L71.25 162.656C70.6771 162.427 70.0521 162.24 69.375 162.094C68.6979 161.938 68.099 161.859 67.5781 161.859C64.099 161.859 62.3594 164.078 62.3594 168.516C62.3594 170.62 62.7812 172.234 63.625 173.359C64.4792 174.484 65.7396 175.047 67.4062 175.047C68.8333 175.047 70.2969 174.74 71.7969 174.125V176.422C70.651 177.016 69.2083 177.312 67.4688 177.312ZM78.3125 159.875V170.734L78.2031 173.578L78.1562 174.469L87.4219 159.875H90.6562V177H88.2344V166.531L88.2812 164.469L88.3594 162.438L79.1094 177H75.875V159.875H78.3125ZM95.2656 166.734C95.2656 162.984 95.8177 160.062 96.9219 157.969C98.026 155.865 99.776 154.552 102.172 154.031C105.151 153.396 107.776 152.88 110.047 152.484L110.531 154.766C106.917 155.37 104.333 155.849 102.781 156.203C101.271 156.547 100.135 157.359 99.375 158.641C98.625 159.922 98.2135 161.667 98.1406 163.875H98.3281C98.974 163 99.8073 162.312 100.828 161.812C101.849 161.312 102.917 161.062 104.031 161.062C106.135 161.062 107.776 161.745 108.953 163.109C110.13 164.474 110.719 166.365 110.719 168.781C110.719 171.458 110.036 173.552 108.672 175.062C107.307 176.562 105.406 177.312 102.969 177.312C100.562 177.312 98.6771 176.391 97.3125 174.547C95.9479 172.703 95.2656 170.099 95.2656 166.734ZM103.203 175.141C106.38 175.141 107.969 173.115 107.969 169.062C107.969 165.198 106.526 163.266 103.641 163.266C102.849 163.266 102.083 163.432 101.344 163.766C100.615 164.089 99.9427 164.521 99.3281 165.062C98.724 165.604 98.2552 166.161 97.9219 166.734C97.9219 169.474 98.3542 171.562 99.2188 173C100.083 174.427 101.411 175.141 103.203 175.141ZM130.031 168.422C130.031 171.214 129.328 173.396 127.922 174.969C126.516 176.531 124.573 177.312 122.094 177.312C120.562 177.312 119.203 176.953 118.016 176.234C116.828 175.516 115.911 174.484 115.266 173.141C114.62 171.797 114.297 170.224 114.297 168.422C114.297 165.63 114.995 163.458 116.391 161.906C117.786 160.344 119.724 159.562 122.203 159.562C124.599 159.562 126.5 160.359 127.906 161.953C129.323 163.547 130.031 165.703 130.031 168.422ZM116.984 168.422C116.984 170.609 117.422 172.276 118.297 173.422C119.172 174.568 120.458 175.141 122.156 175.141C123.854 175.141 125.141 174.573 126.016 173.438C126.901 172.292 127.344 170.62 127.344 168.422C127.344 166.245 126.901 164.594 126.016 163.469C125.141 162.333 123.844 161.766 122.125 161.766C120.427 161.766 119.146 162.323 118.281 163.438C117.417 164.552 116.984 166.214 116.984 168.422ZM137.312 173.281L137.547 173.641C137.276 174.682 136.885 175.891 136.375 177.266C135.865 178.651 135.333 179.938 134.781 181.125H132.828C133.109 180.042 133.417 178.703 133.75 177.109C134.094 175.516 134.333 174.24 134.469 173.281H137.312ZM159.641 174.5L160.125 173.047L160.797 171.203L165.438 159.906H168.734V177H166.438V162.859L166.125 163.766L165.219 166.156L160.797 177H158.625L154.203 166.125C153.651 164.729 153.271 163.641 153.062 162.859V177H150.75V159.906H153.922L158.406 170.766C158.854 171.911 159.266 173.156 159.641 174.5ZM176.875 166.953H181.547C183.724 166.953 185.333 167.359 186.375 168.172C187.427 168.974 187.953 170.177 187.953 171.781C187.953 173.5 187.396 174.802 186.281 175.688C185.177 176.562 183.547 177 181.391 177H174.281V159.875H176.875V166.953ZM193.422 177H190.828V159.875H193.422V177ZM176.875 169.188V174.828H181.266C184.016 174.828 185.391 173.865 185.391 171.938C185.391 170.979 185.073 170.281 184.438 169.844C183.802 169.406 182.719 169.188 181.188 169.188H176.875ZM221.141 164.172C221.141 165.286 220.818 166.135 220.172 166.719C219.536 167.292 218.641 167.677 217.484 167.875V168.016C218.943 168.214 220.005 168.641 220.672 169.297C221.349 169.953 221.688 170.859 221.688 172.016C221.688 173.609 221.099 174.839 219.922 175.703C218.755 176.568 217.047 177 214.797 177H207.25V159.875H214.766C219.016 159.875 221.141 161.307 221.141 164.172ZM219.094 171.844C219.094 170.917 218.74 170.245 218.031 169.828C217.333 169.401 216.172 169.188 214.547 169.188H209.844V174.828H214.609C217.599 174.828 219.094 173.833 219.094 171.844ZM218.609 164.422C218.609 163.589 218.286 163 217.641 162.656C217.005 162.302 216.036 162.125 214.734 162.125H209.844V166.953H214.234C215.839 166.953 216.969 166.755 217.625 166.359C218.281 165.964 218.609 165.318 218.609 164.422ZM236 177L235.484 174.562H235.359C234.505 175.635 233.651 176.365 232.797 176.75C231.953 177.125 230.896 177.312 229.625 177.312C227.927 177.312 226.594 176.875 225.625 176C224.667 175.125 224.188 173.88 224.188 172.266C224.188 168.807 226.953 166.995 232.484 166.828L235.391 166.734V165.672C235.391 164.328 235.099 163.339 234.516 162.703C233.943 162.057 233.021 161.734 231.75 161.734C230.323 161.734 228.708 162.172 226.906 163.047L226.109 161.062C226.953 160.604 227.875 160.245 228.875 159.984C229.885 159.724 230.896 159.594 231.906 159.594C233.948 159.594 235.458 160.047 236.438 160.953C237.427 161.859 237.922 163.312 237.922 165.312V177H236ZM230.141 175.172C231.755 175.172 233.021 174.729 233.938 173.844C234.865 172.958 235.328 171.719 235.328 170.125V168.578L232.734 168.688C230.672 168.76 229.182 169.083 228.266 169.656C227.359 170.219 226.906 171.099 226.906 172.297C226.906 173.234 227.188 173.948 227.75 174.438C228.323 174.927 229.12 175.172 230.141 175.172ZM252.172 174.5L252.656 173.047L253.328 171.203L257.969 159.906H261.266V177H258.969V162.859L258.656 163.766L257.75 166.156L253.328 177H251.156L246.734 166.125C246.182 164.729 245.802 163.641 245.594 162.859V177H243.281V159.906H246.453L250.938 170.766C251.385 171.911 251.797 173.156 252.172 174.5ZM277.719 177H275.125V159.875H289.5V177H286.875V162.125H277.719V177ZM302.234 177.312C299.703 177.312 297.703 176.542 296.234 175C294.776 173.458 294.047 171.318 294.047 168.578C294.047 165.818 294.724 163.625 296.078 162C297.443 160.375 299.271 159.562 301.562 159.562C303.708 159.562 305.406 160.271 306.656 161.688C307.906 163.094 308.531 164.953 308.531 167.266V168.906H296.734C296.786 170.917 297.292 172.443 298.25 173.484C299.219 174.526 300.578 175.047 302.328 175.047C304.172 175.047 305.995 174.661 307.797 173.891V176.203C306.88 176.599 306.01 176.88 305.188 177.047C304.375 177.224 303.391 177.312 302.234 177.312ZM301.531 161.734C300.156 161.734 299.057 162.182 298.234 163.078C297.422 163.974 296.943 165.214 296.797 166.797H305.75C305.75 165.161 305.385 163.911 304.656 163.047C303.927 162.172 302.885 161.734 301.531 161.734ZM320.938 177.312C319.823 177.312 318.802 177.109 317.875 176.703C316.958 176.286 316.188 175.651 315.562 174.797H315.375C315.5 175.797 315.562 176.745 315.562 177.641V184.688H312.969V159.875H315.078L315.438 162.219H315.562C316.229 161.281 317.005 160.604 317.891 160.188C318.776 159.771 319.792 159.562 320.938 159.562C323.208 159.562 324.958 160.339 326.188 161.891C327.427 163.443 328.047 165.62 328.047 168.422C328.047 171.234 327.417 173.422 326.156 174.984C324.906 176.536 323.167 177.312 320.938 177.312ZM320.562 161.766C318.812 161.766 317.547 162.25 316.766 163.219C315.984 164.188 315.583 165.729 315.562 167.844V168.422C315.562 170.828 315.964 172.552 316.766 173.594C317.568 174.625 318.854 175.141 320.625 175.141C322.104 175.141 323.26 174.542 324.094 173.344C324.938 172.146 325.359 170.495 325.359 168.391C325.359 166.255 324.938 164.62 324.094 163.484C323.26 162.339 322.083 161.766 320.562 161.766ZM339.828 177.312C337.297 177.312 335.297 176.542 333.828 175C332.37 173.458 331.641 171.318 331.641 168.578C331.641 165.818 332.318 163.625 333.672 162C335.036 160.375 336.865 159.562 339.156 159.562C341.302 159.562 343 160.271 344.25 161.688C345.5 163.094 346.125 164.953 346.125 167.266V168.906H334.328C334.38 170.917 334.885 172.443 335.844 173.484C336.812 174.526 338.172 175.047 339.922 175.047C341.766 175.047 343.589 174.661 345.391 173.891V176.203C344.474 176.599 343.604 176.88 342.781 177.047C341.969 177.224 340.984 177.312 339.828 177.312ZM339.125 161.734C337.75 161.734 336.651 162.182 335.828 163.078C335.016 163.974 334.536 165.214 334.391 166.797H343.344C343.344 165.161 342.979 163.911 342.25 163.047C341.521 162.172 340.479 161.734 339.125 161.734ZM353.828 166.984C357.068 166.984 358.688 166.089 358.688 164.297C358.688 162.609 357.375 161.766 354.75 161.766C353.948 161.766 353.219 161.839 352.562 161.984C351.906 162.13 351.047 162.422 349.984 162.859L349.062 160.75C350.833 159.958 352.766 159.562 354.859 159.562C356.828 159.562 358.38 159.969 359.516 160.781C360.651 161.583 361.219 162.682 361.219 164.078C361.219 165.995 360.151 167.25 358.016 167.844V167.969C359.328 168.354 360.286 168.906 360.891 169.625C361.495 170.333 361.797 171.224 361.797 172.297C361.797 173.88 361.156 175.115 359.875 176C358.604 176.875 356.844 177.312 354.594 177.312C352.125 177.312 350.219 176.943 348.875 176.203V173.828C350.781 174.724 352.708 175.172 354.656 175.172C356.156 175.172 357.286 174.917 358.047 174.406C358.818 173.885 359.203 173.141 359.203 172.172C359.203 170.182 357.583 169.188 354.344 169.188H351.969V166.984H353.828ZM379.922 164.172C379.922 165.286 379.599 166.135 378.953 166.719C378.318 167.292 377.422 167.677 376.266 167.875V168.016C377.724 168.214 378.786 168.641 379.453 169.297C380.13 169.953 380.469 170.859 380.469 172.016C380.469 173.609 379.88 174.839 378.703 175.703C377.536 176.568 375.828 177 373.578 177H366.031V159.875H373.547C377.797 159.875 379.922 161.307 379.922 164.172ZM377.875 171.844C377.875 170.917 377.521 170.245 376.812 169.828C376.115 169.401 374.953 169.188 373.328 169.188H368.625V174.828H373.391C376.38 174.828 377.875 173.833 377.875 171.844ZM377.391 164.422C377.391 163.589 377.068 163 376.422 162.656C375.786 162.302 374.818 162.125 373.516 162.125H368.625V166.953H373.016C374.62 166.953 375.75 166.755 376.406 166.359C377.062 165.964 377.391 165.318 377.391 164.422ZM399.031 168.422C399.031 171.214 398.328 173.396 396.922 174.969C395.516 176.531 393.573 177.312 391.094 177.312C389.562 177.312 388.203 176.953 387.016 176.234C385.828 175.516 384.911 174.484 384.266 173.141C383.62 171.797 383.297 170.224 383.297 168.422C383.297 165.63 383.995 163.458 385.391 161.906C386.786 160.344 388.724 159.562 391.203 159.562C393.599 159.562 395.5 160.359 396.906 161.953C398.323 163.547 399.031 165.703 399.031 168.422ZM385.984 168.422C385.984 170.609 386.422 172.276 387.297 173.422C388.172 174.568 389.458 175.141 391.156 175.141C392.854 175.141 394.141 174.573 395.016 173.438C395.901 172.292 396.344 170.62 396.344 168.422C396.344 166.245 395.901 164.594 395.016 163.469C394.141 162.333 392.844 161.766 391.125 161.766C389.427 161.766 388.146 162.323 387.281 163.438C386.417 164.552 385.984 166.214 385.984 168.422ZM406.188 159.875V167.047H415.781V159.875H418.375V177H415.781V169.281H406.188V177H403.594V159.875H406.188ZM426.312 159.875V170.734L426.203 173.578L426.156 174.469L435.422 159.875H438.656V177H436.234V166.531L436.281 164.469L436.359 162.438L427.109 177H423.875V159.875H426.312ZM453.047 174.5L453.531 173.047L454.203 171.203L458.844 159.906H462.141V177H459.844V162.859L459.531 163.766L458.625 166.156L454.203 177H452.031L447.609 166.125C447.057 164.729 446.677 163.641 446.469 162.859V177H444.156V159.906H447.328L451.812 170.766C452.26 171.911 452.672 173.156 453.047 174.5ZM470.031 170.703H468.391L467.594 154.156H470.828L470.031 170.703ZM467.312 175.344C467.312 173.927 467.938 173.219 469.188 173.219C469.792 173.219 470.255 173.401 470.578 173.766C470.911 174.13 471.078 174.656 471.078 175.344C471.078 176.01 470.911 176.531 470.578 176.906C470.245 177.271 469.781 177.453 469.188 177.453C468.646 177.453 468.198 177.292 467.844 176.969C467.49 176.635 467.312 176.094 467.312 175.344Z" fill="#333333"/>
</svg>
